<?xml version="1.0" encoding="UTF-8"?>
<svg version="1.1" xmlns="http://www.w3.org/2000/svg" width="512" height="512">
<path d="M0 0 C2.15481221 1.06657923 4.25170078 2.20957353 6.3515625 3.38061523 C8.03314146 4.29208758 9.71547943 5.20216056 11.3984375 6.11108398 C12.30787109 6.60527832 13.21730469 7.09947266 14.15429688 7.60864258 C19.60168189 10.53719864 25.10563893 13.35704322 30.6015625 16.19311523 C39.02472547 20.5522362 47.43393818 24.93556718 55.8203125 29.36499023 C62.72953822 33.00889695 69.66480144 36.60196017 76.6015625 40.19311523 C85.02410021 44.55345555 93.43392871 48.93556218 101.8203125 53.36499023 C108.72953822 57.00889695 115.66480144 60.60196017 122.6015625 64.19311523 C131.02410021 68.55345555 139.43392871 72.93556218 147.8203125 77.36499023 C154.72953879 81.00889725 161.66483572 84.60189298 168.6015625 88.19311523 C185.15344902 96.76384651 201.62815038 105.47189706 218.1015625 114.19311523 C218.1015625 210.55311523 218.1015625 306.91311523 218.1015625 406.19311523 C209.1915625 406.52311523 200.2815625 406.85311523 191.1015625 407.19311523 C185.24029605 409.32774 181.20474276 410.98240162 176.1015625 414.13061523 C174.8814532 414.82728296 173.65822217 415.51850827 172.43212891 416.20458984 C170.0370461 417.55290063 167.65909042 418.92481183 165.29394531 420.32495117 C161.09383121 422.78283379 156.80117268 425.02722386 152.4765625 427.25561523 C150.9941069 428.03686933 149.51235105 428.81945248 148.03125 429.60327148 C141.9040582 432.83073712 135.75156396 436.00940021 129.6015625 439.19311523 C121.92191492 443.1688432 114.24826828 447.15436218 106.6015625 451.19311523 C97.78282477 455.85089924 88.92700929 460.43613614 80.0703125 465.02124023 C73.56860672 468.38924097 67.07624526 471.77346867 60.6015625 475.19311523 C53.03690626 479.18769149 45.44762952 483.13361905 37.8515625 487.06811523 C24.53515083 493.96682813 24.53515083 493.96682813 11.2265625 500.88061523 C10.27620117 501.37352051 9.32583984 501.86642578 8.34667969 502.37426758 C7.02265137 503.06383545 7.02265137 503.06383545 5.671875 503.76733398 C4.85879883 504.18805176 4.04572266 504.60876953 3.20800781 505.04223633 C0.94699623 506.22633043 0.94699623 506.22633043 -1.59375 508.08764648 C-4.9948234 509.71900881 -7.23766472 508.952162 -10.8984375 508.19311523 C-13.38107022 507.1004705 -15.67211387 505.98752941 -18.03515625 504.68530273 C-19.03759621 504.14958397 -19.03759621 504.14958397 -20.06028748 503.6030426 C-22.24099222 502.43463005 -24.4133242 501.25149471 -26.5859375 500.06811523 C-28.11713664 499.2442771 -29.6488825 498.42145438 -31.18115234 497.59960938 C-34.28677425 495.93183198 -37.38919131 494.25832829 -40.48876953 492.5793457 C-44.39926022 490.46141439 -48.3164611 488.3563873 -52.23828125 486.25952148 C-56.77532903 483.83333769 -61.31043055 481.40360201 -65.84375 478.97045898 C-73.51729971 474.85661379 -81.2073048 470.77396733 -88.8984375 466.69311523 C-100.0533473 460.77416649 -111.19275567 454.82744224 -122.3203125 448.85717773 C-131.16774483 444.11319253 -140.03050465 439.39863558 -148.8984375 434.69311523 C-160.03652301 428.78300192 -171.15998595 422.84673989 -182.26977539 416.88354492 C-188.69919996 413.43502284 -195.13610071 410.00128948 -201.58203125 406.58374023 C-202.67809189 406.00245361 -202.67809189 406.00245361 -203.79629517 405.40942383 C-207.36513808 403.51704224 -210.93485013 401.62632746 -214.50585938 399.73803711 C-215.80210581 399.05123058 -217.09833085 398.36438364 -218.39453125 397.67749023 C-220.09887329 396.77595215 -220.09887329 396.77595215 -221.83764648 395.85620117 C-222.84770752 395.30738281 -223.85776855 394.75856445 -224.8984375 394.19311523 C-225.77338206 393.88814715 -226.64832663 393.58317907 -227.54978466 393.26896954 C-230.36795723 390.77813072 -230.29334125 390.13038309 -230.52929401 386.49796009 C-230.55781279 384.43762236 -230.55824496 382.37679289 -230.53767395 380.31636047 C-230.55020746 378.61579956 -230.55020746 378.61579956 -230.56299418 376.88088387 C-230.58503375 373.06188303 -230.57128265 369.24383368 -230.55786133 365.42480469 C-230.56353419 362.69530801 -230.57672984 359.96585999 -230.58963013 357.23638916 C-230.61350011 351.34975491 -230.61907142 345.46333007 -230.61228371 339.57665443 C-230.60249616 331.06551442 -230.6201976 322.55460711 -230.64465102 314.04350474 C-230.68357452 300.23554102 -230.70020556 286.42764371 -230.70288086 272.61962891 C-230.70552756 259.2048807 -230.71863381 245.79021012 -230.74584961 232.37548828 C-230.74752299 231.54887868 -230.74919637 230.72226907 -230.75092045 229.87061069 C-230.7593798 225.72383449 -230.76804524 221.57705875 -230.77681315 217.43028319 C-230.8493077 183.0179035 -230.88565055 148.60556772 -230.8984375 114.19311523 C-64.1484375 27.19311523 -64.1484375 27.19311523 -61.27148438 25.69213867 C-59.36128166 24.69548294 -57.45112515 23.69873863 -55.54101562 22.7019043 C-50.65083221 20.14999629 -45.7597726 17.59979099 -40.8671875 15.05249023 C-39.87589844 14.53581787 -38.88460937 14.01914551 -37.86328125 13.48681641 C-35.90870784 12.46913132 -33.95300236 11.45361715 -31.99609375 10.44042969 C-27.74639951 8.23416939 -23.52343609 6.00502744 -19.3671875 3.62670898 C-18.68785156 3.24353516 -18.00851563 2.86036133 -17.30859375 2.46557617 C-15.54895808 1.46611031 -13.80121109 0.44578996 -12.0546875 -0.57641602 C-7.57443495 -2.32304913 -4.41268545 -1.87550481 0 0 Z " fill="#E5E5E5" transform="translate(262.8984375,2.806884765625)"/>
<path d="M0 0 C2.18377761 0.00275905 4.36756325 0.0015521 6.55133724 -0.00328732 C12.38587236 -0.00531456 18.21873745 0.04674423 24.05287933 0.1102066 C29.53257863 0.1615629 35.0118772 0.16387988 40.49182129 0.17028809 C56.50445193 0.21746448 72.51677359 0.3431156 88.52905273 0.45922852 C142.20561523 0.73766602 142.20561523 0.73766602 196.96655273 1.02172852 C196.96655273 76.26172852 196.96655273 151.50172852 196.96655273 229.02172852 C188.38655273 229.02172852 179.80655273 229.02172852 170.96655273 229.02172852 C167.41776367 229.06555664 163.86897461 229.10938477 160.21264648 229.15454102 C155.25756836 229.15454102 155.25756836 229.15454102 152.83691406 229.14379883 C151.1844522 229.14578875 149.53193 229.16629835 147.87988281 229.20336914 C134.01443306 229.49253947 134.01443306 229.49253947 128.96362305 225.86499023 C126.70683145 223.35892868 124.85163202 220.81182746 122.96655273 218.02172852 C121.62320774 216.61578604 120.25234075 215.23498379 118.84155273 213.89672852 C116.30382543 211.39896542 113.90695419 208.85163676 111.59155273 206.14672852 C108.85033825 202.95490343 105.95969386 199.97869875 102.96655273 197.02172852 C99.40254971 193.50066529 96.06351106 189.88986844 92.81030273 186.08422852 C89.81305045 182.73137003 86.57495639 179.62279095 83.37670898 176.46313477 C80.69800741 173.74970125 78.22047156 170.91395829 75.74389648 168.01782227 C73.02654593 164.96602857 70.09357083 162.14015732 67.18530273 159.27172852 C63.95048178 155.99134671 60.96326407 152.51789173 57.96655273 149.02172852 C51.58515616 142.64033194 39.98454267 147.36857428 30.96655273 147.02172852 C30.96655273 174.41172852 30.96655273 201.80172852 30.96655273 230.02172852 C11.49655273 230.02172852 -7.97344727 230.02172852 -28.03344727 230.02172852 C-28.03344727 202.63172852 -28.03344727 175.24172852 -28.03344727 147.02172852 C-71.59344727 147.02172852 -115.15344727 147.02172852 -160.03344727 147.02172852 C-156.41163496 142.79628082 -153.03484061 138.92097876 -149.09594727 135.08422852 C-146.18539273 132.20822062 -143.36732154 129.32958028 -140.72094727 126.20922852 C-137.51105827 122.45037988 -134.04554891 118.99430173 -130.53344727 115.52172852 C-126.48543499 111.51917398 -122.60316789 107.47912561 -118.92407227 103.13110352 C-115.80766554 99.65412081 -112.45840981 96.40643892 -109.11914062 93.14453125 C-106.79549034 90.85991499 -104.84897594 88.74502153 -103.03344727 86.02172852 C-99.91400368 85.72768612 -96.99322181 85.63093916 -93.87142944 85.66096497 C-92.91008579 85.65840169 -91.94874213 85.65583842 -90.95826685 85.65319747 C-87.71672092 85.64823135 -84.47563433 85.66479911 -81.23413086 85.68115234 C-78.91859447 85.681998 -76.60305728 85.68152467 -74.28752136 85.67982483 C-67.98405196 85.67896107 -61.68075245 85.69664835 -55.37732267 85.7175467 C-48.79628571 85.73625022 -42.21524523 85.73805894 -35.63418579 85.74162292 C-24.58267253 85.74939991 -13.53121905 85.76866176 -2.47973633 85.79541016 C8.90470059 85.82293582 20.28912052 85.84417669 31.67358398 85.85693359 C32.72571176 85.85811585 32.72571176 85.85811585 33.79909463 85.85932199 C37.31781 85.86323702 40.83652549 85.86702817 44.35524106 85.8707577 C73.55905346 85.90187158 102.76279939 85.95554712 131.96655273 86.02172852 C131.96655273 78.76172852 131.96655273 71.50172852 131.96655273 64.02172852 C62.00655273 64.02172852 -7.95344727 64.02172852 -80.03344727 64.02172852 C-73.28974979 55.03013188 -73.28974979 55.03013188 -69.75610352 51.58422852 C-68.99491211 50.83399414 -68.2337207 50.08375977 -67.44946289 49.31079102 C-66.67280273 48.55540039 -65.89614258 47.80000977 -65.09594727 47.02172852 C-60.07852452 42.11729194 -55.21981704 37.18617176 -50.6484375 31.86157227 C-48.23777383 29.11527424 -45.64877355 26.57120594 -43.03344727 24.02172852 C-39.68414219 20.71804158 -36.40820578 17.41043252 -33.34594727 13.83422852 C-32.83479087 13.26121222 -32.32363447 12.68819593 -31.79698849 12.09781551 C-29.98719453 10.04522351 -29.98719453 10.04522351 -28.48066807 7.71658421 C-21.07445665 -1.82178988 -11.00097478 -0.18138316 0 0 Z " fill="#266BA2" transform="translate(284.033447265625,179.978271484375)"/>
<path d="M0 0 C2.15481221 1.06657923 4.25170078 2.20957353 6.3515625 3.38061523 C8.03314146 4.29208758 9.71547943 5.20216056 11.3984375 6.11108398 C12.30787109 6.60527832 13.21730469 7.09947266 14.15429688 7.60864258 C19.60168189 10.53719864 25.10563893 13.35704322 30.6015625 16.19311523 C39.02472547 20.5522362 47.43393818 24.93556718 55.8203125 29.36499023 C62.72953822 33.00889695 69.66480144 36.60196017 76.6015625 40.19311523 C85.02410021 44.55345555 93.43392871 48.93556218 101.8203125 53.36499023 C108.72953822 57.00889695 115.66480144 60.60196017 122.6015625 64.19311523 C131.02410021 68.55345555 139.43392871 72.93556218 147.8203125 77.36499023 C154.72953879 81.00889725 161.66483572 84.60189298 168.6015625 88.19311523 C185.15344902 96.76384651 201.62815038 105.47189706 218.1015625 114.19311523 C218.1015625 135.31311523 218.1015625 156.43311523 218.1015625 178.19311523 C208.30573486 178.12858154 208.30573486 178.12858154 198.31201172 178.06274414 C176.72667535 177.93076917 155.14164052 177.87518771 133.55592155 177.85889626 C120.46926753 177.84715686 107.3836674 177.80938932 94.29736328 177.7097168 C82.8873215 177.62287834 71.47835659 177.58551842 60.06798565 177.60684335 C54.02924948 177.61642047 47.99283261 177.60171901 41.95449448 177.52769852 C36.26201392 177.45870109 30.57325247 177.45623355 24.88058472 177.50320625 C22.79973927 177.50893989 20.7186629 177.49105919 18.63827896 177.44686317 C8.90361481 177.25254422 1.22470311 177.20062072 -6.18726242 184.11743867 C-8.94544522 187.0083025 -11.44885052 190.04012427 -13.8984375 193.19311523 C-15.0997291 194.57427161 -16.30548898 195.95162489 -17.5234375 197.31811523 C-18.02359375 197.91108398 -18.52375 198.50405273 -19.0390625 199.11499023 C-22.17007425 202.61435631 -25.54337247 205.87749963 -28.90087891 209.15844727 C-31.75974537 211.89963727 -31.75974537 211.89963727 -33.8984375 215.19311523 C-38.6484375 214.44311523 -38.6484375 214.44311523 -40.8984375 212.19311523 C-41.5584375 212.19311523 -42.2184375 212.19311523 -42.8984375 212.19311523 C-43.5584375 211.53311523 -44.2184375 210.87311523 -44.8984375 210.19311523 C-45.5584375 210.19311523 -46.2184375 210.19311523 -46.8984375 210.19311523 C-47.28902344 209.77803711 -47.67960938 209.36295898 -48.08203125 208.93530273 C-50.68653272 206.43722175 -53.78299842 204.96178185 -56.9609375 203.31811523 C-57.62834961 202.9680542 -58.29576172 202.61799316 -58.98339844 202.25732422 C-60.95137202 201.22856769 -62.9237269 200.20887075 -64.8984375 199.19311523 C-66.43564453 198.40227539 -66.43564453 198.40227539 -68.00390625 197.59545898 C-71.28528442 195.93295867 -74.40485232 194.35764363 -77.8984375 193.19311523 C-77.8984375 192.53311523 -77.8984375 191.87311523 -77.8984375 191.19311523 C-78.68476563 190.95850586 -79.47109375 190.72389648 -80.28125 190.48217773 C-84.94028439 188.8218307 -89.32139411 186.71367831 -93.7734375 184.56811523 C-94.65257812 184.14788086 -95.53171875 183.72764648 -96.4375 183.29467773 C-98.59266628 182.26394603 -100.74623672 181.23002097 -102.8984375 180.19311523 C-102.5684375 179.53311523 -102.2384375 178.87311523 -101.8984375 178.19311523 C-100.24617409 178.25093422 -100.24617409 178.25093422 -98.56053162 178.30992126 C-88.07571364 178.66124187 -77.59441151 178.88610222 -67.10418606 178.99364376 C-61.71241171 179.05281145 -56.32864364 179.15329961 -50.94018555 179.35546875 C-23.98591796 181.32575237 -23.98591796 181.32575237 -0.36497974 170.74499226 C3.99730412 166.55498268 7.67570497 161.89458977 11.15666199 156.95344543 C15.58107799 150.67402443 20.9404012 145.20565882 26.40234375 139.82983398 C26.96479294 139.27117142 27.52724213 138.71250885 28.10673523 138.13691711 C29.87338393 136.3823135 31.64328861 134.63105488 33.4140625 132.88061523 C35.76721581 130.55408346 38.11700658 128.22422904 40.46484375 125.89233398 C41.26949821 125.10012703 41.26949821 125.10012703 42.09040833 124.29191589 C44.38223265 122.01529946 46.30197998 119.89248901 48.1015625 117.19311523 C-43.3084375 116.86311523 -134.7184375 116.53311523 -228.8984375 116.19311523 C-228.8984375 184.83311523 -228.8984375 253.47311523 -228.8984375 324.19311523 C-229.2284375 324.19311523 -229.5584375 324.19311523 -229.8984375 324.19311523 C-230.2284375 254.89311523 -230.5584375 185.59311523 -230.8984375 114.19311523 C-64.1484375 27.19311524 -64.1484375 27.19311524 -61.27148438 25.69213867 C-59.36128166 24.69548294 -57.45112515 23.69873863 -55.54101562 22.7019043 C-50.65083221 20.14999629 -45.7597726 17.59979099 -40.8671875 15.05249023 C-39.87589844 14.53581787 -38.88460937 14.01914551 -37.86328125 13.48681641 C-35.90870784 12.46913132 -33.95300236 11.45361715 -31.99609375 10.44042969 C-27.74639951 8.23416939 -23.52343609 6.00502744 -19.3671875 3.62670898 C-18.68785156 3.24353516 -18.00851563 2.86036133 -17.30859375 2.46557617 C-15.54895808 1.46611031 -13.80121109 0.44578996 -12.0546875 -0.57641602 C-7.57443495 -2.32304913 -4.41268545 -1.87550481 0 0 Z " fill="#EEEEEE" transform="translate(262.8984375,2.806884765625)"/>
<path d="M0 0 C91.74 0 183.48 0 278 0 C273.50060771 6.74908843 273.50060771 6.74908843 270.90307617 9.30810547 C270.32534958 9.88245331 269.74762299 10.45680115 269.15238953 11.04855347 C268.53878067 11.6487027 267.92517181 12.24885193 267.29296875 12.8671875 C266.64934891 13.50560577 266.00572906 14.14402405 265.34260559 14.80178833 C263.29564074 16.83104831 261.24209965 18.85347287 259.1875 20.875 C257.14446487 22.89021404 255.10299125 24.906948 253.06452942 26.92678833 C251.8006855 28.1785932 250.53418192 29.42772124 249.26445007 30.67355347 C243.57363359 36.30107413 238.30831745 42.13659792 233.65579224 48.6569519 C228.1959597 55.74119686 222.51216098 61.79830773 213.34094393 63.33067071 C204.03248705 64.44915795 194.61980049 64.10950397 185.27011251 63.82509089 C180.89048255 63.71134336 176.51054832 63.70190072 172.12966919 63.68063354 C163.86209033 63.62503346 155.59887687 63.47783205 147.33320725 63.29634273 C136.14464683 63.05609297 124.95486329 62.96008519 113.76436806 62.85530281 C96.17298537 62.68684025 78.59080746 62.32808091 61 62 C61 90.05 61 118.1 61 147 C86.08 147 111.16 147 137 147 C133.23039375 151.39787396 129.66563216 155.42965103 125.5625 159.4375 C122.46559783 162.48875269 119.4382042 165.55668183 116.625 168.875 C113.43870567 172.61543247 109.99119746 176.04803498 106.5 179.5 C103.07154618 182.89005591 99.67739237 186.25194033 96.5625 189.9375 C91.02568899 196.25140729 84.93808477 202.06191523 79 208 C52.93 208 26.86 208 0 208 C0 139.36 0 70.72 0 0 Z " fill="#8DAFCB" transform="translate(34,119)"/>
<path d="M0 0 C8.58 0 17.16 0 26 0 C30.63129496 4.63129496 34.92794905 9.01635983 39.15234375 13.93359375 C41.18910592 16.21149478 43.32474075 18.35418588 45.5 20.5 C48.26560408 23.22829407 50.91287031 25.98516834 53.4375 28.9375 C56.15619248 32.1103592 59.02751675 35.06338382 62 38 C65.56400302 41.52106323 68.90304168 45.13186008 72.15625 48.9375 C75.15350228 52.29035849 78.39159634 55.39893756 81.58984375 58.55859375 C84.26089288 61.26427561 86.73265783 64.09005965 89.19921875 66.98046875 C92.0459626 70.17302096 95.11486586 73.13547967 98.1796875 76.1171875 C100 78 100 78 101 80 C120.305 80.495 120.305 80.495 140 81 C137.1332381 83.8667619 135.02905867 85.18827573 131.46875 87.00390625 C130.35822266 87.57431641 129.24769531 88.14472656 128.10351562 88.73242188 C126.90235702 89.34247404 125.70118483 89.95249946 124.5 90.5625 C123.26203139 91.1966054 122.02440377 91.83137692 120.78710938 92.46679688 C118.92566596 93.42265593 117.06403395 94.37812119 115.20129395 95.33145142 C110.28060486 97.85001382 105.38486607 100.41283424 100.5 103 C91.68185096 107.6588832 82.82543463 112.24302721 73.96875 116.828125 C67.46704484 120.19612542 60.97464936 123.58029083 54.5 127 C45.68126227 131.65778401 36.82544679 136.24302091 27.96875 140.828125 C21.46704422 144.19612574 14.97468276 147.58035343 8.5 151 C0.93534376 154.99457626 -6.65393298 158.94050381 -14.25 162.875 C-27.56641167 169.7737129 -27.56641167 169.7737129 -40.875 176.6875 C-41.82536133 177.18040527 -42.77572266 177.67331055 -43.75488281 178.18115234 C-47.21786956 179.98471225 -50.62852059 181.76893389 -53.9453125 183.83203125 C-56 185 -56 185 -59 185 C-59 151.34 -59 117.68 -59 83 C-39.53 83 -20.06 83 0 83 C0 55.61 0 28.22 0 0 Z " fill="#F4F4F5" transform="translate(315,327)"/>
<path d="M0 0 C90.75 0 181.5 0 275 0 C270.50060771 6.74908843 270.50060771 6.74908843 267.90307617 9.30810547 C267.32534958 9.88245331 266.74762299 10.45680115 266.15238953 11.04855347 C265.53878067 11.6487027 264.92517181 12.24885193 264.29296875 12.8671875 C263.64934891 13.50560577 263.00572906 14.14402405 262.34260559 14.80178833 C260.29564074 16.83104831 258.24209965 18.85347287 256.1875 20.875 C254.14446487 22.89021404 252.10299125 24.906948 250.06452942 26.92678833 C248.8006855 28.1785932 247.53418192 29.42772124 246.26445007 30.67355347 C240.60471548 36.27033794 235.29998431 41.90256782 231.01367188 48.63305664 C225.92178501 55.84785928 220.22440078 61.32231024 211.41210938 63.09588623 C199.6880678 64.89200368 187.76057607 64.70519567 175.93359375 64.51147461 C170.63596606 64.42691239 165.35862019 64.51657574 160.06277466 64.65469933 C130.07300099 65.32554806 108.37334628 59.0314264 82.67407227 43.73770142 C77.81514586 40.85711026 72.85093876 38.20192959 67.84570312 35.58569336 C67.08528465 35.18756722 66.32486618 34.78944109 65.54140472 34.37925053 C58.44401118 30.68231079 51.28840525 27.10270869 44.11804199 23.54986572 C31.90216318 17.49472966 19.75424509 11.33734163 7.72851562 4.91113281 C5.17366118 3.5644214 2.58943496 2.27863403 0 1 C0 0.67 0 0.34 0 0 Z " fill="#84A4BE" transform="translate(37,119)"/>
<path d="M0 0 C2.45465849 -0.28679046 4.6564484 -0.37873005 7.11181641 -0.34057617 C7.84362625 -0.34101425 8.5754361 -0.34145233 9.329422 -0.34190369 C11.75373815 -0.33980989 14.17736684 -0.3164519 16.6015625 -0.29296875 C18.28021873 -0.28737488 19.95887985 -0.28310379 21.63754272 -0.28010559 C26.05999222 -0.26864033 30.48214706 -0.23915891 34.90447998 -0.20599365 C40.20828156 -0.16993927 45.51218155 -0.1561396 50.81607056 -0.13863373 C58.87758543 -0.10952233 66.93845352 -0.05204729 75 0 C75 20.13 75 40.26 75 61 C31.44 61 -12.12 61 -57 61 C-53.37818769 56.77455231 -50.00139334 52.89925024 -46.0625 49.0625 C-43.15194546 46.1864921 -40.33387428 43.30785176 -37.6875 40.1875 C-34.477611 36.42865137 -31.01210165 32.97257321 -27.5 29.5 C-23.45198772 25.49744547 -19.56972062 21.4573971 -15.890625 17.109375 C-12.77421828 13.63239229 -9.42496255 10.38471041 -6.08569336 7.12280273 C-3.76204308 4.83818647 -1.81552867 2.72329301 0 0 Z " fill="#7EA0BC" transform="translate(181,266)"/>
<path d="M0 0 C2.04977108 0.0168048 4.09957852 0.02960712 6.1493988 0.03858948 C11.52122378 0.07280673 16.89082722 0.1610838 22.26177979 0.26092529 C27.75168815 0.35331309 33.2419587 0.39416551 38.73242188 0.43945312 C49.48795047 0.53571668 60.24183675 0.68913959 70.99609375 0.87890625 C67.35076055 3.70177684 63.49416411 5.80385863 59.39453125 7.88671875 C58.62518753 8.28114166 57.85584381 8.67556458 57.06318665 9.0819397 C54.50128845 10.39348301 51.93637623 11.69899606 49.37109375 13.00390625 C47.57135392 13.92216813 45.77163095 14.84046308 43.97192383 15.75878906 C30.02049814 22.86803942 16.04008421 29.92045966 2.04449463 36.94232178 C-0.19409122 38.06570038 -2.43208932 39.19025099 -4.66949463 40.315979 C-7.81665033 41.8984286 -10.96647928 43.47541916 -14.1171875 45.05078125 C-15.06019211 45.52585114 -16.00319672 46.00092102 -16.97477722 46.49038696 C-17.84459732 46.92378387 -18.71441742 47.35718079 -19.6105957 47.80371094 C-20.36629349 48.18227234 -21.12199127 48.56083374 -21.90058899 48.9508667 C-24.00390625 49.87890625 -24.00390625 49.87890625 -28.00390625 50.87890625 C-28.00390625 55.16890625 -28.00390625 59.45890625 -28.00390625 63.87890625 C-45.16390625 63.87890625 -62.32390625 63.87890625 -80.00390625 63.87890625 C-73.26020877 54.88730961 -73.26020877 54.88730961 -69.7265625 51.44140625 C-68.96537109 50.69117188 -68.20417969 49.9409375 -67.41992188 49.16796875 C-66.64326172 48.41257813 -65.86660156 47.6571875 -65.06640625 46.87890625 C-60.04898351 41.97446967 -55.19027602 37.04334949 -50.61889648 31.71875 C-48.20823281 28.97245197 -45.61923253 26.42838367 -43.00390625 23.87890625 C-39.65460117 20.57521932 -36.37866477 17.26761025 -33.31640625 13.69140625 C-32.80528793 13.11857407 -32.29416962 12.54574188 -31.76756287 11.95555115 C-29.9569605 9.90201449 -29.9569605 9.90201449 -28.4500885 7.56874084 C-21.05155467 -1.97126237 -10.9838414 -0.26478116 0 0 Z " fill="#799AB4" transform="translate(284.00390625,180.12109375)"/>
<path d="M0 0 C52.8 0 105.6 0 160 0 C160 6.93 160 13.86 160 21 C107.2 21 54.4 21 0 21 C0 14.07 0 7.14 0 0 Z " fill="#FCFCFC" transform="translate(256,245)"/>
<path d="M0 0 C20.79 0 41.58 0 63 0 C63 7.59 63 15.18 63 23 C57.21262923 23.2774239 51.44866906 23.51533581 45.65991211 23.65917969 C43.69719981 23.71914921 41.73501513 23.80076514 39.77416992 23.90527344 C22.59046042 24.79747928 22.59046042 24.79747928 17.38989258 20.4753418 C14.54041787 17.59371549 12.31500173 14.32010517 10 11 C8.17421271 9.01640327 6.2626251 7.17876569 4.3125 5.3125 C2.85700527 3.89322287 1.41277423 2.46180761 0 1 C0 0.67 0 0.34 0 0 Z " fill="#F2F3F4" transform="translate(418,326)"/>
<path d="M0 0 C0.33 0.66 0.66 1.32 1 2 C1.83402344 2.27714844 2.66804688 2.55429688 3.52734375 2.83984375 C8.62332972 4.54232725 13.1249129 7.20922619 17.81054688 9.81054688 C21.52426029 11.83109799 24.72683028 13.51768183 29 14 C28.34 14.33 27.68 14.66 27 15 C27 19.29 27 23.58 27 28 C9.84 28 -7.32 28 -25 28 C-18.25551586 19.00735449 -18.25551586 19.00735449 -14.51171875 15.3515625 C-13.72345703 14.57425781 -12.93519531 13.79695312 -12.12304688 12.99609375 C-11.31931641 12.21363281 -10.51558594 11.43117187 -9.6875 10.625 C-8.06424156 9.03606261 -6.4430366 7.44502376 -4.82421875 5.8515625 C-4.11354248 5.15885254 -3.40286621 4.46614258 -2.6706543 3.75244141 C-0.92331101 2.0911865 -0.92331101 2.0911865 0 0 Z " fill="#7EA0BC" transform="translate(229,216)"/>
</svg>
